# xmcd
#
# Track frame offsets:
#	150
#	8354
#	15035
#	22553
#	35059
#	49575
#	54816
#	64522
#	76043
#	95024
#	108173
#	118144
#	133926
#	144929
#	156683
#	169330
#	182539
#	193758
#	204399
#	218469
#	232791
#	244960
#	255252
#	267686
#
# Disc length: 3714 seconds
#
# Revision: 0
# Processed by: cddbd v1.5.2PL0 Copyright (c) Steve Scherf et al.
# Submitted via: EasyCDDAExtractor 16.0.6.1
#
DISCID=2e0e8018
DTITLE=Buffalo Springfield - C-109 Box Set - CD 1
DYEAR=1966
DGENRE=Country-Rock
TTITLE0=There Goes My Babe (mono - demo)
TTITLE1=Come On (mono - demo)
TTITLE2=Hello, I've Returned (mono - demo)
TTITLE3=Out Of My Mind (mono - demo)
TTITLE4=Flying On The Ground Is Wrong (mono - demo)
TTITLE5=I'm Your Kind Of Guy (mono - demo)
TTITLE6=Baby Don't Scold Me (mono - demo)
TTITLE7=Neighbor Don't You Worry (mono - demo)
TTITLE8=We'll See (mono - demo)
TTITLE9=Sad Memory (mono - demo)
TTITLE10=Can't Keep Me Down (mono - demo)
TTITLE11=Nowadays Clancy Can't Even Sing (mono)
TTITLE12=Go And Say Goodbye (mono)
TTITLE13=Sit Down I Think I Love You (mono)
TTITLE14=Leave (mono)
TTITLE15=Hot Dusty Roads (mono)
TTITLE16=Everybody's Wrong (mono)
TTITLE17=Burned (mono)
TTITLE18=Do I Have To Come Right Out And Say It (mono)
TTITLE19=Out Of My Mind (mono)
TTITLE20=Pay The Price (mono)
TTITLE21=Down Down Down (mono - demo)
TTITLE22=Flying On The Ground Is Wrong (mono)
TTITLE23=Neighbor Don't You Worry (mono - remix)
EXTD=
EXTT0=
EXTT1=
EXTT2=
EXTT3=
EXTT4=
EXTT5=
EXTT6=
EXTT7=
EXTT8=
EXTT9=
EXTT10=
EXTT11=
EXTT12=
EXTT13=
EXTT14=
EXTT15=
EXTT16=
EXTT17=
EXTT18=
EXTT19=
EXTT20=
EXTT21=
EXTT22=
EXTT23=
PLAYORDER=
